<?xml version="1.0" standalone="no"?>
<!DOCTYPE svg PUBLIC "-//W3C//DTD SVG 20010904//EN"
 "http://www.w3.org/TR/2001/REC-SVG-20010904/DTD/svg10.dtd">
<svg version="1.0" xmlns="http://www.w3.org/2000/svg"
 width="805.000000pt" height="805.000000pt" viewBox="0 0 805.000000 805.000000"
 preserveAspectRatio="xMidYMid meet">
<metadata>
Created by potrace 1.14, written by Peter Selinger 2001-2017
</metadata>
<g transform="translate(0.000000,805.000000) scale(0.100000,-0.100000)"
fill="#000000" stroke="none">
<path d="M3818 7935 c-2 -2 -34 -6 -73 -9 -118 -12 -149 -15 -175 -21 -14 -2
-41 -7 -60 -10 -28 -5 -234 -46 -300 -60 -61 -14 -459 -143 -505 -165 -11 -5
-44 -19 -74 -30 -130 -50 -336 -153 -521 -261 -13 -8 -85 -55 -160 -105 -418
-278 -770 -631 -1057 -1059 -130 -194 -295 -507 -368 -698 l-43 -112 -159 0
-158 -1 -2 -71 -2 -71 97 -2 c82 -2 130 -4 164 -9 4 -1 0 -22 -8 -48 -26 -84
-92 -346 -99 -393 -3 -25 -8 -52 -10 -60 -5 -18 -12 -58 -20 -120 -3 -25 -8
-58 -11 -73 -3 -15 -7 -47 -10 -70 -2 -23 -7 -80 -11 -127 -10 -108 -10 -529
0 -635 22 -236 66 -485 121 -687 21 -78 22 -88 7 -93 -27 -11 -97 -20 -202
-24 -13 -1 -16 -14 -17 -71 -1 -48 3 -70 11 -71 7 0 72 -1 146 -2 l133 -2 29
-80 c185 -508 491 -1003 864 -1394 150 -157 255 -254 406 -376 97 -79 303
-228 375 -272 10 -6 87 -54 169 -106 168 -105 332 -196 476 -262 192 -88 512
-182 749 -219 19 -3 44 -8 56 -10 12 -2 45 -7 75 -11 30 -3 61 -8 69 -10 50
-13 223 -20 485 -20 327 0 373 3 640 41 77 11 231 45 362 79 485 129 949 354
1363 664 63 47 126 95 140 107 205 175 308 275 458 444 238 266 386 509 504
825 43 117 91 299 104 400 3 22 11 72 17 110 l12 70 105 5 105 5 2 73 2 72
-87 2 c-115 2 -109 1 -125 22 -13 18 -16 18 -36 4 -19 -14 -28 -14 -65 -3 -67
20 -117 50 -165 97 -43 42 -43 43 -37 98 3 30 7 64 10 75 2 11 7 49 11 85 4
36 9 73 10 82 2 9 7 70 11 135 20 305 -6 673 -46 673 -17 0 -29 -36 -89 -256
-73 -266 -156 -514 -173 -514 -4 0 -25 35 -47 78 -21 42 -66 118 -99 169 -51
77 -65 92 -94 98 -152 31 -437 143 -558 220 -25 16 -56 35 -70 42 -22 11 -14
13 75 14 244 1 373 17 595 70 219 53 296 87 420 184 63 50 98 88 136 144 57
87 65 103 69 146 2 17 7 44 10 60 24 110 4 243 -53 350 -37 69 -220 246 -302
293 -61 34 -173 76 -230 86 -14 2 -52 9 -85 15 -33 6 -72 12 -87 13 -22 2 -33
15 -70 83 -30 57 -42 89 -40 112 4 35 -17 79 -85 187 -262 409 -646 764 -1095
1014 -69 39 -294 152 -301 152 -3 0 -38 15 -79 34 -73 35 -147 66 -357 150
-62 25 -150 55 -195 65 -44 11 -90 22 -101 25 -23 6 58 -1 121 -10 36 -5 42
-4 46 14 5 17 0 21 -31 27 -43 8 -68 13 -100 20 -13 2 -49 7 -80 11 -31 3 -64
8 -74 10 -123 23 -610 23 -747 0 -14 -3 -47 -7 -75 -11 -27 -3 -57 -8 -65 -10
-8 -2 -33 -6 -55 -10 -152 -22 -544 -136 -633 -184 -27 -14 -32 -14 -32 3 0 8
-4 17 -10 21 -5 3 -72 -26 -148 -64 -208 -103 -221 -63 -21 62 258 161 722
315 1064 353 22 2 54 6 70 9 157 24 576 24 778 -1 26 -3 47 -2 48 2 0 5 2 19
5 32 3 16 -1 22 -14 23 -9 0 -24 2 -33 4 -9 1 -59 6 -110 10 -99 7 -151 14
-157 20 -12 12 14 24 46 20 20 -2 71 -7 113 -10 92 -6 139 -12 249 -31 123
-21 141 -24 180 -34 19 -5 46 -11 60 -14 172 -34 522 -162 731 -266 160 -81
464 -268 523 -322 29 -27 41 -22 21 9 l-18 27 40 -30 c125 -92 186 -146 354
-314 306 -306 504 -586 724 -1024 61 -121 115 -221 121 -223 20 -7 -12 132
-60 262 -28 75 -128 280 -172 355 -57 97 -214 323 -270 390 -148 176 -307 342
-443 461 -38 34 -61 61 -57 68 10 15 41 -11 195 -162 114 -113 287 -307 357
-402 16 -22 34 -45 39 -51 11 -13 13 -16 120 -166 41 -60 78 -108 80 -108 7 0
-10 41 -54 129 -23 45 -38 81 -34 81 5 0 13 -8 19 -17 7 -10 49 -76 94 -148
70 -109 119 -180 98 -140 -49 90 -207 331 -282 430 -158 205 -416 470 -673
690 -7 5 -18 15 -25 20 -41 30 -191 166 -238 215 -138 142 -799 438 -1180 529
-168 40 -339 79 -380 86 -14 3 -36 7 -50 10 -14 2 -38 7 -55 10 -16 3 -41 7
-55 10 -29 6 -57 11 -155 26 -38 6 -92 15 -120 19 -42 7 -360 11 -367 5z m745
-712 c-7 -2 -19 -2 -25 0 -7 3 -2 5 12 5 14 0 19 -2 13 -5z m-98 -168 c33 -4
71 -8 85 -10 52 -5 178 -28 260 -47 47 -11 92 -21 100 -23 40 -8 113 -30 195
-57 726 -241 1338 -766 1694 -1453 17 -33 31 -61 31 -63 0 -2 -17 0 -37 4 -21
4 -559 8 -1196 9 -1037 1 -1159 -1 -1166 -15 -7 -14 -6 -119 1 -125 2 -1 57
-5 123 -8 130 -6 200 -25 261 -72 74 -56 117 -146 130 -272 8 -85 9 -1586 0
-1667 -4 -32 -9 -63 -12 -68 -3 -4 -8 -21 -10 -36 -5 -26 -39 -90 -66 -122
-29 -35 -107 -80 -164 -94 -33 -9 -104 -17 -157 -19 -53 -2 -100 -7 -104 -11
-11 -11 -11 -126 0 -133 12 -7 1705 -11 1716 -3 4 3 8 35 8 73 0 61 -1 67 -21
68 -166 5 -211 10 -281 34 -102 35 -170 107 -203 216 -24 80 -25 99 -26 519
l-1 345 224 0 224 0 319 -460 c176 -253 327 -471 336 -485 9 -14 59 -85 110
-159 50 -74 92 -138 92 -143 0 -10 -47 -84 -74 -115 -34 -40 -45 -29 -48 50
-2 52 -6 67 -12 52 -32 -71 -188 -308 -233 -354 -8 -7 -40 -48 -72 -90 -139
-183 -436 -448 -691 -618 -152 -102 -413 -244 -535 -294 -113 -45 -425 -146
-425 -137 0 4 -15 1 -34 -7 -68 -29 -148 -42 -361 -61 -33 -2 -77 -6 -97 -9
-28 -2 -38 0 -38 11 0 12 -11 14 -52 9 -69 -7 -209 -7 -278 0 -112 11 -281 34
-290 40 -3 2 -29 6 -57 10 -29 3 -66 10 -82 15 -16 4 -32 6 -35 2 -3 -3 -6 4
-6 15 0 16 -12 23 -67 38 -121 32 -171 54 -175 77 -2 16 -29 31 -127 69 -69
27 -147 60 -173 74 -27 14 -53 23 -58 20 -23 -14 -261 128 -419 251 -376 290
-629 619 -835 1087 -59 133 -143 375 -170 487 -29 124 -57 271 -54 282 5 13 6
10 218 -437 21 -44 71 -150 112 -235 41 -85 83 -173 93 -196 l20 -40 92 0 c51
1 93 4 93 7 0 4 26 62 59 130 59 125 98 209 176 374 23 50 61 130 84 179 23
49 55 116 71 150 15 33 52 113 83 176 30 63 66 140 80 170 13 30 51 109 82
175 32 66 86 181 120 255 102 220 184 390 187 390 6 0 1 -1467 -6 -1520 -15
-124 -67 -224 -142 -273 -71 -46 -143 -63 -277 -66 -67 -1 -124 -4 -128 -7 -4
-2 -7 -35 -6 -73 l1 -68 325 -1 c849 -3 1423 -2 1429 2 4 2 7 35 7 73 l-1 68
-58 2 c-128 3 -204 13 -258 32 -138 48 -209 152 -224 331 -9 102 -8 1547 1
1639 24 249 159 350 470 351 l71 0 -1 67 c0 67 -1 67 -30 73 -23 4 -788 5
-1056 1 -33 -1 -37 -5 -59 -53 -13 -29 -47 -104 -77 -167 -29 -62 -53 -115
-53 -116 0 -2 -25 -57 -56 -122 -81 -171 -108 -230 -142 -304 -17 -37 -48
-104 -70 -150 -22 -46 -51 -109 -65 -139 -14 -30 -42 -91 -62 -135 -21 -44
-50 -107 -65 -140 -15 -33 -43 -94 -63 -135 -19 -41 -51 -111 -72 -155 -83
-181 -119 -255 -125 -255 -3 0 -14 19 -25 43 -10 23 -41 89 -68 147 -103 218
-137 292 -137 295 0 1 -34 73 -75 160 -41 86 -75 158 -75 159 0 2 -29 64 -63
137 -234 494 -240 507 -233 541 23 118 170 440 286 628 77 125 125 218 117
226 -3 3 -15 0 -28 -6 -31 -17 80 116 217 260 61 64 124 134 140 156 57 79
144 160 254 237 201 140 339 220 532 306 133 59 394 146 500 166 13 3 46 9 73
15 72 15 84 17 145 25 30 4 64 9 75 11 11 3 61 7 110 10 50 4 91 8 93 9 6 6
356 -3 417 -10z m1860 -1789 c22 -5 56 -10 75 -12 19 -3 46 -7 59 -9 13 -2 43
-7 65 -10 23 -4 50 -8 61 -10 11 -2 27 -4 36 -4 18 -1 227 -161 246 -189 6 -9
28 -80 48 -157 32 -123 36 -150 31 -220 -7 -113 -48 -223 -108 -295 -47 -57
-149 -117 -243 -145 -125 -36 -219 -43 -600 -41 l-370 1 0 544 c0 504 1 544
17 550 24 9 634 6 683 -3z m1365 -2509 c0 -34 -187 -411 -271 -545 -107 -173
-274 -371 -295 -350 -2 3 35 65 83 139 79 122 87 139 89 189 2 30 5 66 9 80 3
14 7 36 10 50 4 20 47 213 60 270 2 8 8 30 14 48 5 18 10 35 10 37 1 9 12 59
17 73 2 9 39 12 139 12 74 0 135 -1 135 -3z"/>
<path d="M6345 6810 c10 -11 20 -20 23 -20 3 0 -3 9 -13 20 -10 11 -20 20 -23
20 -3 0 3 -9 13 -20z"/>
<path d="M6500 6676 c0 -2 8 -10 18 -17 15 -13 16 -12 3 4 -13 16 -21 21 -21
13z"/>
<path d="M7406 5857 c3 -10 9 -15 12 -12 3 3 0 11 -7 18 -10 9 -11 8 -5 -6z"/>
</g>
</svg>
